<svg width="220" height="33" viewBox="0 0 220 33" fill="none" xmlns="http://www.w3.org/2000/svg">
<path fill-rule="evenodd" clip-rule="evenodd" d="M104.383 9.34139C104.383 13.5818 103.947 26.7477 103.947 26.7477C103.947 29.2944 104.832 30.4235 107.324 30.4235V31.5527H97.4918V30.4235C99.9842 30.4235 101.305 29.2944 101.305 26.7477L102.19 5.24508C101.455 3.5513 100.719 2.98671 98.8127 2.84256V1.8335H106.302L114.228 21.9306L122.304 1.8335H129.058V2.81853C127.152 2.81853 126.117 3.67143 126.117 5.65351L127.002 26.4594C127.002 29.5707 127.588 30.4235 130.23 30.4235V31.5527H118.927V30.4235C121.132 30.4235 122.154 29.7148 122.005 26.4594C122.005 26.4594 121.569 11.8881 121.419 9.34139L115.986 23.7686C115.25 25.6065 114.515 27.7327 113.929 29.9911L112.172 30.1352C111.736 28.5736 110.552 25.7506 110.552 25.7506C110.552 25.7506 105.991 13.4377 104.383 9.34139Z" fill="#6C675C"/>
<path fill-rule="evenodd" clip-rule="evenodd" d="M95.1243 31.6968C94.5386 31.5526 93.9528 31.5526 93.3671 31.5526C92.1957 31.5526 90.1394 32.1172 87.647 32.1172C78.1011 32.1172 71.06 26.6035 71.06 16.4049C71.06 7.7679 77.6649 1.125 87.7966 1.125C90.1394 1.125 92.7814 1.54544 94.9872 2.39832C95.4234 1.97789 95.5729 1.68959 96.0091 1.26915H96.8939C96.7444 2.83077 96.1586 7.92406 96.1586 7.92406H95.2738C94.6881 4.95698 93.068 2.97492 87.9337 2.97492C81.7649 2.97492 76.1944 7.64778 76.1944 16.2727C76.1944 26.0389 81.9145 30.2793 88.2327 30.2793C92.3452 30.2793 94.8377 28.0209 96.4577 25.186L97.4796 25.6064L95.1243 31.6968Z" fill="#6C675C"/>
<path fill-rule="evenodd" clip-rule="evenodd" d="M67.3834 7.35715H66.3615C66.212 4.66635 65.3397 3.82547 63.1339 3.82547H58.8718V26.0366C58.8718 29.7124 59.6071 30.4211 62.0995 30.4211V31.5503H51.0955V30.4211C53.5879 30.4211 54.3232 29.7124 54.3232 25.8924V3.81346H50.0611C47.2696 3.81346 46.8334 4.5222 46.0982 7.34513H45.0763L45.8116 0.978516L46.5468 1.12267C46.8459 1.8314 47.4316 1.8314 49.1888 1.8314H63.433C66.0749 1.8314 66.6606 1.8314 67.2464 0.978516H68.1312L67.3834 7.35715Z" fill="#6C675C"/>
<path fill-rule="evenodd" clip-rule="evenodd" d="M36.2654 32.2617C34.2091 32.2617 32.6015 31.9734 31.4176 31.553C30.2462 31.2647 29.3614 30.8442 28.9252 30.5679C28.3395 31.1325 27.9033 31.8413 27.9033 31.8413L27.0185 31.553L27.7538 24.898L28.7756 25.0421C29.3614 28.1534 31.5672 30.4238 36.1158 30.4238C39.6426 30.4238 41.9854 27.5888 41.9854 24.4775C41.9854 21.9309 40.9636 20.6575 37.4368 18.1108C36.2654 17.4021 35.231 16.8375 34.3587 16.1288C31.131 14.1467 29.0747 11.8883 29.0747 8.20043C29.0747 3.95998 32.7386 1.125 37.5863 1.125C40.3778 1.125 42.135 1.9779 42.7207 2.25419L43.7426 1.125L44.4779 1.26915L43.7426 7.34754L42.7207 7.2154C42.7207 4.38042 40.9636 3.10708 38.0225 3.10708C35.231 3.10708 33.1748 4.52457 33.1748 7.2154C33.1748 9.61792 35.0815 11.1796 37.2872 12.5971C38.4587 13.3058 39.3435 13.8704 40.2283 14.435C45.3627 17.9667 46.5466 20.2371 46.5466 23.6367C46.5341 28.5859 42.5712 32.2617 36.2654 32.2617Z" fill="#6C675C"/>
<path fill-rule="evenodd" clip-rule="evenodd" d="M19.529 7.35991H18.3576C18.3576 4.81325 17.1862 3.82823 14.8308 3.82823H8.22591V15.0119H12.4879C14.6937 15.0119 15.1299 13.8827 15.429 12.0448H16.4509V19.9731H15.429C15.1299 17.8468 14.6937 17.006 12.3509 17.006H8.23837V26.4838C8.23837 30.0155 9.12318 30.448 11.4661 30.448V31.5772H0.300018V30.448C3.09153 30.448 3.5277 29.7392 3.5277 26.4838V5.66614C3.5277 3.68408 2.64289 2.83119 0.300018 2.83119V1.83415H15.5661C18.208 1.83415 18.7938 1.69 19.2299 0.849121H20.2518L19.529 7.35991Z" fill="#6C675C"/>
<path fill-rule="evenodd" clip-rule="evenodd" d="M177.923 9.05316V26.0392C177.923 29.7151 178.807 30.4239 181.15 30.4239V31.5531H163.828V30.4239C165.149 30.4239 166.32 30.0034 166.32 29.1505C166.32 28.5859 166.171 27.5889 165.884 26.6038L164.563 22.4954H154.88C154.731 23.06 152.974 27.733 152.974 29.0064C152.974 30.1356 154.294 30.4239 155.179 30.4239V31.5531H147.104V30.4239C148.574 30.4239 149.746 30.2797 150.768 27.3126L158.257 4.24806C157.821 3.26301 157.236 2.97471 156.201 2.83056V1.8335H162.806L170.732 26.0272C171.467 28.5739 172.203 29.8473 173.374 30.4119C175.131 29.8473 175.58 29.2827 175.58 26.0272V5.66557C174.259 3.97177 174.109 2.83056 171.617 2.83056V1.8335H179.107L191.432 22.063V6.65061C191.432 3.53931 190.696 2.83056 188.204 2.83056V1.8335H204.641V2.81854C203.619 2.81854 202.735 3.23899 202.735 4.23605C202.735 4.9448 203.034 5.65355 203.32 6.49445L208.019 16.2608L212.567 6.78275C213.302 5.5094 213.452 4.80065 213.452 4.0919C213.452 3.23899 212.866 2.81854 211.545 2.81854V1.8335H219.322V2.81854C217.415 2.81854 216.244 4.51234 215.359 6.49445L209.34 18.3751V26.1593C209.34 29.5589 210.224 30.3998 212.567 30.3998V31.529H201.414V30.3998C203.757 30.3998 204.641 29.5469 204.641 26.1593V19.5043L198.186 6.33828C197.015 3.79158 196.566 3.22698 195.843 2.80653C194.373 3.37113 193.936 4.36819 193.936 6.62659V28.4177C193.936 28.4177 194.086 30.1115 194.235 32.0936L192.329 32.2378L177.923 9.05316ZM159.578 7.63566L155.466 20.5133H163.978L159.578 7.63566Z" fill="#6C675C"/>
<path fill-rule="evenodd" clip-rule="evenodd" d="M141.371 20.5131C141.371 20.5131 140.05 20.5131 139.165 20.5131V26.6035C139.165 29.7148 140.05 30.4235 142.543 30.4235V31.5527H131.24V30.4235C133.582 30.4235 134.467 29.5707 134.467 26.4594V6.50641C134.467 3.39514 133.582 2.83054 131.24 2.83054V1.8335H139.751C147.976 1.8335 152.812 4.23602 152.812 10.7469C152.824 17.546 146.954 20.5131 141.371 20.5131ZM139.901 3.81558H139.165V18.3869H140.486C145.334 18.3869 147.827 16.2607 147.827 10.891C147.827 5.52137 145.633 3.81558 139.901 3.81558Z" fill="#6C675C"/>
<path fill-rule="evenodd" clip-rule="evenodd" d="M90.1396 25.8955C84.5565 25.8955 80.7432 22.0755 80.7432 16.5618C80.7432 11.3243 84.7061 7.22803 90.1396 7.22803C95.4235 7.22803 99.3864 11.1922 99.3864 16.5618C99.3864 21.7872 95.2739 25.8955 90.1396 25.8955ZM90.1396 8.90978C86.3262 8.90978 85.0052 12.4415 85.0052 16.5498C85.0052 20.3697 86.1766 24.1897 90.1396 24.1897C93.9529 24.1897 95.1368 20.3697 95.1368 16.4056C95.1244 12.5976 93.6663 8.90978 90.1396 8.90978Z" fill="#6C675C"/>
<path fill-rule="evenodd" clip-rule="evenodd" d="M25.548 24.1973V23.2122C27.0186 23.2122 27.3052 22.7918 27.3052 22.3594C27.3052 21.7948 27.1556 21.3743 27.0061 20.9419C27.0061 20.9419 26.707 19.8127 26.4204 18.9598H20.7003L20.1145 20.7977C19.965 21.2182 19.8154 21.6506 19.8154 22.2152C19.8154 22.7798 20.4012 23.2002 21.286 23.2002V24.1853H15.5659V23.2002C17.0364 23.2002 17.6221 22.7798 18.2078 21.2182L22.607 8.48498C22.4574 7.9204 22.0212 7.49996 21.1364 7.49996V6.50293H25.8347C29.6481 17.2541 30.6824 20.089 30.6824 20.089C31.4177 22.4915 32.153 23.2002 33.3244 23.2002V24.1853H25.548V24.1973ZM23.4918 10.467L21.286 17.3982H25.8347L23.4918 10.467Z" fill="#6C675C"/>
</svg>
