<svg width="147" height="34" viewBox="0 0 147 34" fill="none" xmlns="http://www.w3.org/2000/svg">
<g clip-path="url(#clip0)">
<path d="M26.896 6.96714e-05C24.0911 0.0117334 21.3007 1.48567 19.9081 4.42103L19.2647 5.77595V16.9715V28.167L19.9081 29.5219C20.9066 31.6265 22.4521 32.955 24.7684 33.6885C26.4285 34.2141 29.0747 33.9371 30.7626 33.0651C31.8575 32.4994 33.4069 30.8153 34.005 29.541L34.5528 28.3706V16.9715V5.57239L33.954 4.36378C32.5165 1.44019 29.701 -0.01159 26.896 6.96714e-05ZM27.0234 5.54695C27.1249 5.54756 27.2263 5.5576 27.3228 5.57875C27.6463 5.6497 28.1857 6.02418 28.5268 6.41206L29.151 7.11814V16.9206V26.7231L28.6924 27.391C28.4401 27.76 27.9664 28.1551 27.6413 28.2688C27.3163 28.3825 26.9494 28.474 26.8259 28.4724C26.3347 28.4658 25.5722 27.9232 25.1315 27.2701L24.6665 26.5831V16.9969C24.6672 7.84657 24.6817 7.37749 25.0614 6.75556C25.5106 6.01999 26.3133 5.54218 27.0234 5.54695Z" fill="#6C675C"/>
<path d="M91.1626 33.5819C88.7997 32.7068 87.2476 31.1992 86.3531 28.9106C86.0384 28.1053 86.0067 26.7452 86.0123 14.2547L86.0183 0.486439L88.7715 0.429804L91.5247 0.373169L91.5277 13.5591C91.5301 23.7489 91.5891 26.8607 91.7874 27.2539C91.9286 27.5338 92.3684 27.9374 92.7649 28.1508C93.6556 28.6303 94.4022 28.483 95.22 27.6663L95.8054 27.0817V13.7274V0.373169L98.5606 0.429804L101.316 0.486439L101.315 14.2624C101.315 27.7242 101.305 28.0641 100.89 29.1721C100.29 30.7726 98.7603 32.3793 97.06 33.1943C95.2873 34.0441 92.844 34.2047 91.1626 33.5819H91.1626Z" fill="#6C675C"/>
<path d="M0 16.9744V0.384644H6.82868H13.6574V3.23442V6.08419H9.68246H5.70755V9.96224V13.8403L8.20461 13.8056L10.7017 13.771L10.7584 16.5431L10.8151 19.3153H8.26132H5.70755V26.4397V33.5641H2.85378H0V16.9744Z" fill="#6C675C"/>
<path d="M42.1951 16.9744V0.384644H46.433C51.0476 0.384644 52.3107 0.57549 53.9168 1.51543C55.1284 2.22447 56.3947 3.65001 57.0389 5.03014C57.5601 6.14668 57.5808 6.33266 57.6472 10.5013C57.7024 13.9705 57.6516 15.0672 57.3882 16.0941C57.0078 17.5767 56.3146 18.8403 55.3569 19.7966L54.6797 20.4728L56.4665 26.5831C57.4492 29.9438 58.3154 32.8894 58.3916 33.1288C58.5285 33.5598 58.5007 33.5641 55.5883 33.5641H52.6467L51.7906 30.2564C50.9375 26.9601 48.7592 18.7019 48.5745 18.0633C48.5045 17.8213 48.6468 17.6901 49.0834 17.5943C49.892 17.417 51.353 16.1439 51.7003 15.314C51.9018 14.8323 51.9795 13.6209 51.9795 10.9604V7.2742L51.3837 6.67919C50.83 6.12626 50.6786 6.08419 49.2433 6.08419H47.6988V19.8242V33.5641H44.947H42.1951V16.9744Z" fill="#6C675C"/>
<path d="M68.8962 33.4115C68.895 33.3275 68.8721 27.1674 68.8453 19.7224L68.7964 6.18597L66.2994 6.12881L63.8023 6.07166V3.22815V0.384644H71.5483H79.2942V3.23442V6.08419H76.8481H74.402V19.8242V33.5641H71.6502C70.1367 33.5641 68.8974 33.4954 68.8962 33.4115Z" fill="#6C675C"/>
<path d="M108.647 16.9744V0.384661H111.459H114.271L114.488 1.14799C114.607 1.56783 115.536 4.52192 116.551 7.71264C117.566 10.9034 118.687 14.4529 119.042 15.6004C119.396 16.748 119.773 17.6868 119.879 17.6868C119.996 17.6868 120.066 14.3457 120.058 9.08664L120.045 0.486439L122.805 0.429804L125.566 0.373169V16.9687V33.5642H122.449H119.332L118.748 31.6813C118.427 30.6457 117.862 28.8497 117.492 27.6901C117.122 26.5305 116.295 23.897 115.654 21.8379C115.013 19.7787 114.413 18.094 114.32 18.094C114.227 18.094 114.151 21.5748 114.151 25.8291V33.5642H111.399H108.647V16.9744H108.647Z" fill="#6C675C"/>
<path d="M132.905 16.9744V0.384644H139.733H146.562V3.23442V6.08419H142.481H138.399L138.455 9.90084L138.51 13.7175H141.109H143.709L143.708 16.5164L143.708 19.3153H141.058H138.408V23.5899V27.8646H142.485H146.562V30.7144V33.5641H139.733H132.905V16.9744H132.905Z" fill="#6C675C"/>
</g>
<defs>
<clipPath id="clip0">
<rect width="146.562" height="33.9595" fill="white"/>
</clipPath>
</defs>
</svg>
