<svg width="254" height="36" viewBox="0 0 254 36" fill="none" xmlns="http://www.w3.org/2000/svg">
<path d="M0.71875 23.2694H4.13619V5.85368H0.71875V1.38379H13.9244L19.7045 16.8176L25.6956 1.38379H39.0278V5.85368H35.6104V23.2694H39.1122V27.7393H25.5268V23.2694H28.9864V5.85368H28.3536L20.1264 27.7393H17.2575L9.0303 5.85368H8.39744V23.2694H11.8571V27.7393H0.71875V23.2694Z" fill="#6C675C"/>
<path d="M59.3656 23.6483C57.467 26.6 54.3449 28.1602 50.3789 28.1602C44.0081 28.1602 40 24.576 40 18.8834C40 13.1487 44.1347 8.97412 49.9148 8.97412C55.4418 8.97412 59.8297 13.1908 59.3656 19.8111H45.9489C45.9911 21.9194 47.1302 24.4073 50.4633 24.4073C52.0244 24.4073 53.037 23.9013 54.7246 22.2568L59.3656 23.6483ZM53.5854 16.522C53.2901 14.2028 51.8556 12.8113 49.7039 12.8113C47.5522 12.8113 46.2864 14.0342 45.9489 16.522H53.5854Z" fill="#6C675C"/>
<path d="M82.7384 27.7387H73.9627V25.546C72.1907 27.2748 70.6297 27.9917 68.6467 27.9917C64.1323 27.9917 60.7148 23.9014 60.7148 18.4618C60.7148 13.1065 64.1745 8.974 68.6889 8.974C70.7562 8.974 72.6126 9.85953 73.9627 11.4197V5.60057H71.136V1.38379H79.9116V23.4797H82.7384V27.7387ZM70.3343 13.7811C68.1404 13.7811 66.7481 15.5944 66.7481 18.5883C66.7481 21.54 68.1404 23.4797 70.3765 23.4797C72.1907 23.4797 74.0471 22.046 74.0471 18.4618C74.0471 15.7209 72.6548 13.7811 70.3343 13.7811Z" fill="#6C675C"/>
<path d="M109.614 1.38263V10.6598H105.142C104.677 9.43693 103.876 8.00318 103.116 7.41281C101.26 5.97906 100.29 5.68388 98.5598 5.68388C93.8344 5.68388 90.7123 9.26826 90.7123 14.6237C90.7123 19.7262 93.75 23.2684 98.1379 23.2684C101.766 23.2684 104.509 20.7383 105.479 16.3948L110.669 18.8828C108.728 25.9672 102.821 28.0757 97.6316 28.0757C86.3666 28.0757 83.3711 20.2744 83.3711 14.5394C83.3711 6.52726 88.9825 0.960938 97.2097 0.960938C100.416 0.960938 102.948 1.71998 105.142 3.44892V1.38263H109.614Z" fill="#6C675C"/>
<path d="M112.397 9.39505H121.004V23.5222H123.662V27.7393H112.355V23.5222H115.013V13.6121H112.355V9.39505H112.397ZM121.342 4.12373C121.342 5.8949 119.907 7.3287 118.135 7.3287C116.363 7.3287 114.971 5.8949 114.971 4.12373C114.971 2.35257 116.321 0.960938 118.093 0.960938C119.865 0.960938 121.342 2.35257 121.342 4.12373Z" fill="#6C675C"/>
<path d="M123.703 9.39505H126.024V6.52764L131.973 2.35303V9.39505H135.263V13.6118H131.973V21.5815C131.973 23.1839 132.226 23.4791 133.491 23.4791C134.124 23.4791 134.462 23.3947 135.263 23.1417V27.1055C133.787 27.738 132.31 28.0332 130.876 28.0332C128.555 28.0332 126.024 26.8947 126.024 23.6478V13.6118H123.703V9.39505Z" fill="#6C675C"/>
<path d="M141.087 31.7024H144.589L145.812 28.4554L139.146 13.6119H136.488V9.39502H147.12V13.6119H145.348L148.428 21.8348L151.677 13.6119H149.652V9.39502H158.976V13.6119H156.318L147.5 35.9614H141.087V31.7024Z" fill="#6C675C"/>
<path d="M166.064 4.67288H162.309V1.38379H171.295L182.687 21.8774H182.771V4.67288H179.101V1.38379H189.944V4.67288H186.062V27.9917H181.927L169.439 5.51624H169.355V24.4496H173.152V27.7387H162.309V24.4496H166.064V4.67288Z" fill="#6C675C"/>
<path d="M192.727 19.4736C193.275 23.0579 195.596 25.082 199.013 25.082C201.376 25.082 203.612 24.0278 204.962 22.088L208.127 23.4796C206.144 26.5579 202.853 28.2446 198.929 28.2446C192.98 28.2446 188.719 24.1965 188.719 18.5459C188.719 12.6002 193.571 8.84717 198.338 8.84717C203.401 8.84717 208.127 12.7267 208.127 19.4314H192.727V19.4736ZM204.456 16.817C203.865 13.9074 201.292 11.7568 198.423 11.7568C195.554 11.7568 193.36 13.7387 192.853 16.817H204.456Z" fill="#6C675C"/>
<path d="M210.28 12.6H208.044V9.4375H215.764V12.6H213.402L216.861 23.6478H216.946L220.405 12.6H218.38V9.4375H227.282V12.6H225.299L228.759 23.6478H228.843L232.345 12.6H229.772V9.4375H238.041V12.6H235.425L230.489 28.0332H227.114L222.979 14.7506H222.895L218.633 28.0332H215.216L210.28 12.6Z" fill="#6C675C"/>
<path d="M238.801 21.4557H242.007V22.0461C242.302 23.8593 243.99 24.9978 246.395 24.9978C248.673 24.9978 250.15 24.1123 250.15 22.7207C250.15 19.3052 243.695 21.4979 240.235 17.998C239.391 17.1546 238.801 15.8474 238.801 14.498C238.801 11.3355 241.501 9.10059 245.256 9.10059C246.943 9.10059 248.504 9.48009 249.728 10.1548V9.43793H252.892V15.4679H249.728V14.3294C248.673 12.7692 247.323 12.0945 245.467 12.0945C243.526 12.0945 242.26 12.98 242.26 14.3294C242.26 17.4076 249.306 15.5944 252.344 18.6305C253.44 19.7268 253.905 21.1605 253.905 22.4256C253.905 25.7568 251.078 27.9917 246.901 27.9917C244.918 27.9917 243.399 27.57 242.091 26.6845V27.6965H238.885V21.4557H238.801Z" fill="#6C675C"/>
</svg>
