<svg width="241" height="53" viewBox="0 0 241 53" fill="none" xmlns="http://www.w3.org/2000/svg">
<path d="M154.106 0.913887L153.899 1.65364C157.104 1.81992 158.011 3.21944 158.011 4.4363C158.011 5.14992 157.725 5.97659 157.153 6.90466C157.153 6.90466 141.378 31.7335 140.143 33.6778C140.071 33.3708 133.595 5.69819 133.595 5.69819C133.48 5.18865 133.422 4.74146 133.422 4.34938C133.422 2.42993 134.889 1.76513 137.726 1.659L137.935 0.913574H125.411L125.196 1.65333C127.874 1.75788 129.439 2.47905 130.281 5.90415C131.775 12.0829 137.562 36.6233 137.731 37.341C131.673 46.242 126.564 51.3979 118.397 51.3979C112.443 51.3979 107.955 47.263 107.955 41.7786C107.955 36.3071 112.307 31.8544 117.656 31.8544C120.983 31.8544 122.779 33.5575 122.779 35.1627C122.779 36.0851 122.272 36.5471 121.892 36.8157C121.447 37.1004 121.035 37.4591 121.035 38.1412C121.035 38.7906 121.539 39.2617 122.235 39.2617C123.382 39.2617 124.002 37.8716 124.002 36.5644C124.002 33.1988 121.57 31.1068 117.656 31.1068C111.097 31.1068 107.036 36.7382 107.036 41.9546C107.036 47.028 111.286 52.2759 118.398 52.2759C128.783 52.2759 134.256 44.0048 140.05 35.2496C140.05 35.2496 156.718 9.18187 158.485 6.5403C160.532 3.47925 163.181 1.77803 166.115 1.6571L166.326 0.913574H154.106V0.913887ZM153.174 27.7554C153.174 33.7559 157.113 36.8938 161.004 36.8938C164.399 36.8938 167.907 35.1463 170.631 32.0956C173.423 28.9685 175.025 24.8156 175.025 20.7014C175.025 15.5238 171.966 12.0458 167.414 12.0458C160.361 12.0455 153.174 19.9736 153.174 27.7554ZM155.881 28.6762C155.881 21.8692 161.517 12.7314 167.284 12.7314C171.374 12.7314 172.232 16.4059 172.232 19.4732C172.232 25.3072 168.36 36.2076 160.959 36.2076C157.78 36.2076 155.881 33.3821 155.881 28.6762ZM190.31 12.4394C190.309 12.4394 186.104 12.515 186.104 12.515C184.042 12.567 181.866 12.6186 180.268 12.5704L180.101 13.1411C182.474 13.2919 183.365 13.8881 182.483 16.7365L177.729 32.5576C177.111 34.5505 175.771 35.5903 173.688 35.7122L173.468 36.3241H182.989L183.158 35.7122C181.377 35.6278 180.041 35.3444 180.041 33.7632C180.041 33.4026 180.113 32.9869 180.255 32.5088C180.255 32.5088 182.568 24.762 182.596 24.6685C182.692 24.6685 186.831 24.6685 186.91 24.6685C186.924 24.6975 186.941 24.7283 186.941 24.7283C188.828 28.525 191.177 33.2454 192.56 36.2854L192.577 36.3241H205.363L205.529 35.7084C203.765 35.6703 202.374 35.2905 202.374 33.7449C202.374 33.3897 202.446 32.979 202.584 32.5085C202.584 32.5085 204.475 26.1764 204.541 25.9562C204.573 25.9301 207.695 23.4869 207.817 23.3896C212.177 32.2304 219.463 46.931 233.658 46.931C237.731 46.931 240.92 44.3789 240.92 41.1229C240.92 38.6303 239.066 37.2878 237.322 37.2878C235.598 37.2878 234.681 38.4709 234.681 39.3256C234.681 39.8374 235.099 40.1816 235.489 40.1816C235.952 40.1816 236.256 39.9886 236.507 39.5335C236.76 39.0737 237.286 38.6375 238.015 38.6375C239.383 38.6375 240.307 39.5732 240.307 41.1229C240.307 43.9128 237.402 46.1824 233.832 46.1824C224.841 46.1824 217.065 38.1973 210.06 21.7737C210.144 21.7111 218.304 15.452 218.304 15.452C221.011 13.4418 222.332 13.2274 223.409 13.1433L223.582 12.5707H215.597L215.43 13.1395C216.759 13.216 217.545 13.7155 217.545 14.3979C217.545 14.9283 217.091 15.5682 216.215 16.2664C216.215 16.2664 206.213 23.8516 204.824 24.9063C204.939 24.5293 207.337 16.6455 207.337 16.6455C207.335 16.6487 207.389 16.4931 207.389 16.4931C208.097 14.4423 208.536 13.2907 211.469 13.1398L211.636 12.5711H202.601L202.424 13.1436C203.735 13.2019 204.532 13.4755 204.867 13.9542C205.219 14.4565 205.189 15.2633 204.767 16.7391L200.058 32.5576C199.446 34.5306 198.198 35.7084 196.72 35.7084C195.372 35.7084 194.478 34.8874 193.423 32.6786C193.423 32.6786 189.739 25.1204 189.361 24.3422C193.028 23.6494 197.266 21.3851 197.266 17.2385C197.265 14.3327 195.254 12.4227 190.31 12.4394ZM189.569 13.0107C193.802 13.0107 194.691 15.1443 194.691 16.9327C194.691 20.1805 193.173 24.0516 185.948 24.0516C185.948 24.0516 182.939 24.0516 182.768 24.0516C182.82 23.8812 186.061 13.2252 186.087 13.1392C186.624 13.0932 188.22 13.0107 189.569 13.0107ZM190.309 12.4394C190.309 12.4394 190.309 12.4394 190.31 12.4394C190.309 12.4394 190.309 12.4394 190.309 12.4394Z" fill="#6C675C"/>
<path d="M55.3937 30.3959C51.6022 23.7281 46.5565 13.1959 43.8764 0.914218H31.4261C28.2084 0.914218 22.8105 1.60579 22.8105 6.20081C22.8105 8.00374 24.2365 9.94901 26.5415 9.94901C28.6334 9.94901 29.7475 8.56115 29.7475 7.56002C29.7475 6.93521 29.3997 6.26442 28.634 6.26442C27.8646 6.26442 27.5208 6.91474 27.5208 7.56002C27.5208 8.34606 26.9925 8.89528 26.2353 8.89528C24.7091 8.89528 23.6419 7.75054 23.6419 6.11389C23.6419 3.16276 26.2613 1.66657 31.4258 1.66657H36.7059C39.7985 1.66657 41.1627 3.20717 40.3873 6.31733C35.0966 25.0605 24.5104 45.0911 10.667 45.0911C4.29756 45.0911 0.965214 41.3562 0.965214 37.6646C0.965214 34.9947 2.77288 32.9997 4.38781 32.9997C5.45775 32.9997 5.85169 33.7127 6.23153 34.4014C6.58786 35.0486 6.95672 35.7162 7.87592 35.7162C8.52183 35.7162 9.20816 35.2476 9.20816 34.3797C9.20816 32.8914 7.52993 31.7706 5.30356 31.7706C2.74405 31.7706 0.00402832 34.1391 0.00402832 37.665C0.00402832 42.5031 4.48842 46.0148 10.6673 46.0148C18.076 46.0148 24.9927 40.7852 31.2268 30.4706C37.1822 20.6154 40.4337 9.48324 41.3723 5.9684C46.7972 25.4633 62.9973 52.2817 79.5277 52.2817C83.9579 52.2817 87.0517 49.803 87.0517 46.2554C87.0517 44.055 85.7195 42.3384 84.0193 42.3384C82.9983 42.3384 82.3386 42.7878 82.3386 43.4938C82.3386 44.1117 82.9046 44.4827 83.453 44.4827C83.7332 44.4827 83.9516 44.3873 84.1632 44.2953C84.3565 44.2103 84.5405 44.1303 84.7602 44.1303C85.6562 44.1303 86.3068 45.0798 86.3068 46.387C86.3068 49.3697 83.511 51.5341 79.6584 51.5341C71.7342 51.5341 63.9695 44.9308 55.9199 31.3464C59.219 20.6412 65.8502 2.71904 73.2476 2.71904C74.5983 2.71904 75.4388 3.05821 76.1803 3.35801C76.7639 3.59295 77.3148 3.81433 78.0024 3.81433C79.6029 3.81433 80.0301 2.80879 80.0301 2.21327C80.0301 0.889339 78.7235 3.869e-08 76.7805 3.869e-08C65.9859 -0.000944727 59.4089 17.3009 55.3937 30.3959ZM112.315 12.5707L112.142 13.1338C114.166 13.2762 114.772 14.357 114.772 15.2495C114.772 15.7348 114.618 16.2878 114.312 16.9034L105.699 33.4922L104.401 15.5184C104.261 13.6553 105.267 13.1606 107.267 13.1433L107.441 12.5707H99.2331L99.0614 13.1338C101.094 13.3039 101.715 14.0169 101.715 14.847C101.715 15.2438 101.609 15.6428 101.316 16.2459C101.316 16.2459 92.9169 33.4138 92.9169 33.4138L91.6113 15.5587C91.5085 13.5158 92.528 13.2141 94.4065 13.1401L94.5761 12.5704H86.194L86.0181 13.1401C88.3799 13.2787 89.1051 13.9649 89.2725 16.1486L90.9341 36.7366H91.9532L102.061 16.1265L103.712 36.7366H104.686L114.994 16.9642C116.37 14.3497 117.907 13.2661 119.916 13.1395L120.085 12.5707H112.315ZM84.1055 12.5707H68.0956L67.9264 13.1357C69.2345 13.2292 70.0534 13.5001 70.3963 13.9948C70.7313 14.4792 70.7313 15.2176 70.3919 16.3885L65.5076 32.7339C64.9391 34.5787 63.5589 35.5925 61.5052 35.7213L61.2899 36.3262H81.7049L85.2444 29.3016L84.825 29.1211C81.9183 33.7669 77.6555 35.7087 70.1938 35.7087C70.1938 35.7087 67.314 35.7087 67.1448 35.7087C67.1952 35.5405 70.5646 24.2811 70.5931 24.1869C70.689 24.1869 73.9881 24.1869 73.9881 24.1869C75.3573 24.1869 76.27 24.4937 76.7799 25.1245C77.365 25.8485 77.4395 27.0845 77.0494 28.9605L77.5702 28.963L80.3958 19.5031L79.8659 19.4993C78.8686 22.1233 76.7874 23.6135 74.0329 23.6135C74.0329 23.6135 70.9341 23.6135 70.7648 23.6135C70.8153 23.4453 73.8791 13.2362 73.9079 13.1429C74.0035 13.1429 77.0857 13.1429 77.0857 13.1429C81.0975 13.1429 83.6053 14.9106 84.4979 18.2787L84.9228 18.2167L84.1647 12.5704H84.1055V12.5707Z" fill="#6C675C"/>
</svg>
