<svg width="222" height="33" viewBox="0 0 222 33" fill="none" xmlns="http://www.w3.org/2000/svg">
<g clip-path="url(#clip0)">
<path d="M62.5285 0.849121H41.8206V11.3225H62.5285V0.849121Z" fill="#6C675C"/>
<path d="M0.406555 0.849121V11.3225H10.7605V32.2616H21.1145V11.3225H31.4684V0.849121H0.406555Z" fill="#6C675C"/>
<path d="M31.4684 32.2614H41.8224H62.538V21.788H41.8224V11.3223H31.4684V32.2614Z" fill="#6C675C"/>
<path d="M88.9306 8.76721H73.715V13.1152H78.8074V26.7848H83.8382V13.1152H88.9306V8.76721Z" fill="#6C675C"/>
<path d="M94.6691 12.9854C91.0845 12.9854 88.4383 15.3806 88.4383 20.0413C88.4383 24.1834 90.6999 27.0668 94.7999 27.0668C96.9307 27.0668 98.6692 26.5023 100.354 25.5183L98.5615 22.5586C97.2076 23.2528 96.223 23.5121 95.0307 23.5121C93.7614 23.5121 92.8768 22.8408 92.723 21.3457H100.715C100.738 21.1169 100.738 20.827 100.738 20.4456C100.738 15.434 98.3999 12.9854 94.6691 12.9854ZM92.7153 18.47C92.8691 17.135 93.4691 16.4104 94.5307 16.4104C95.9076 16.4104 96.3768 17.1045 96.6076 18.47H92.7153Z" fill="#6C675C"/>
<path d="M109.592 23.3139C108.323 23.3139 107.669 22.2078 107.669 20.0719C107.669 17.936 108.269 16.7537 109.462 16.7537C110.477 16.7537 110.915 17.3182 111.562 18.5005L114.777 16.0824C113.585 14.1754 112.1 12.993 109.531 12.993C105.169 12.993 103.038 15.8536 103.038 19.9956C103.038 24.5496 105.423 27.0745 109.423 27.0745C111.838 27.0745 113.315 26.1744 114.9 23.8554L111.939 21.567C111.1 22.8257 110.477 23.3139 109.592 23.3139Z" fill="#6C675C"/>
<path d="M125.686 12.9854C124.079 12.9854 123.117 13.527 122.256 14.1678V8.01953L117.586 9.87316V26.7846H122.256V19.065C122.256 17.3639 122.856 16.9063 123.84 16.9063C124.802 16.9063 125.402 17.3716 125.402 19.1184V26.7846H130.102V18.5234C130.102 14.9687 128.671 12.9854 125.686 12.9854Z" fill="#6C675C"/>
<path d="M141.37 22.7189C139.185 22.7189 138.308 20.5296 138.308 17.7759C138.308 14.9154 139.216 12.8329 141.323 12.8329C142.985 12.8329 143.608 13.8856 144.254 15.5637L148.824 13.7864C147.577 10.3843 145.808 8.48486 141.347 8.48486C136.47 8.48486 133.039 11.9862 133.039 17.7759C133.039 23.1079 135.923 27.0669 141.323 27.0669C145.631 27.0669 147.654 24.7785 148.877 22.4061L144.616 20.1635C143.623 21.8722 142.954 22.7189 141.37 22.7189Z" fill="#6C675C"/>
<path d="M156.369 14.2516V13.2752H151.692V26.7846H156.369V19.4235C156.369 17.7758 157.069 17.2342 158.215 17.2342C159.123 17.2342 159.799 17.7224 160.4 18.3708L161.492 13.5575C160.946 13.2218 160.269 12.993 159.284 12.993C158.084 12.9854 157.176 13.4812 156.369 14.2516Z" fill="#6C675C"/>
<path d="M171.531 20.9948C171.531 22.6958 170.931 23.1535 169.978 23.1535C169.016 23.1535 168.424 22.6882 168.424 20.9414V13.2751H163.724V21.5364C163.724 25.0911 165.154 27.0744 168.139 27.0744C169.724 27.0744 170.708 26.5328 171.539 25.892V26.7845H176.239V13.2751H171.539V20.9948H171.531Z" fill="#6C675C"/>
<path d="M187.733 12.9854C186.125 12.9854 185.164 13.5269 184.31 14.1677V13.2676H179.633V26.7846H184.31V19.0649C184.31 17.3639 184.91 16.9062 185.895 16.9062C186.856 16.9062 187.449 17.3715 187.449 19.1183V26.7846H192.149V18.5234C192.149 14.9687 190.718 12.9854 187.733 12.9854Z" fill="#6C675C"/>
<path d="M201.441 23.3139C200.172 23.3139 199.518 22.2078 199.518 20.0719C199.518 17.936 200.118 16.7537 201.31 16.7537C202.326 16.7537 202.764 17.3182 203.41 18.5005L206.626 16.0824C205.433 14.1754 203.949 12.993 201.379 12.993C197.018 12.993 194.887 15.8536 194.887 19.9956C194.887 24.5496 197.279 27.0745 201.272 27.0745C203.687 27.0745 205.164 26.1744 206.749 23.8554L203.787 21.567C202.949 22.8257 202.326 23.3139 201.441 23.3139Z" fill="#6C675C"/>
<path d="M217.53 12.9854C215.922 12.9854 214.961 13.527 214.107 14.1678V8.01953L209.43 9.87316V26.7846H214.107V19.065C214.107 17.3639 214.707 16.9063 215.692 16.9063C216.653 16.9063 217.245 17.3716 217.245 19.1184V26.7846H221.945V18.5234C221.945 14.9687 220.515 12.9854 217.53 12.9854Z" fill="#6C675C"/>
</g>
<defs>
<clipPath id="clip0">
<rect width="221.541" height="31.4125" fill="white" transform="translate(0.406555 0.849121)"/>
</clipPath>
</defs>
</svg>
